<?xml version="1.0" standalone="no"?>
<!DOCTYPE svg PUBLIC "-//W3C//DTD SVG 20010904//EN"
 "http://www.w3.org/TR/2001/REC-SVG-20010904/DTD/svg10.dtd">
<svg version="1.0" xmlns="http://www.w3.org/2000/svg"
 width="700.000000pt" height="700.000000pt" viewBox="0 0 700.000000 700.000000"
 preserveAspectRatio="xMidYMid meet">
<metadata>
Created by potrace 1.14, written by Peter Selinger 2001-2017
</metadata>
<g transform="translate(0.000000,700.000000) scale(0.100000,-0.100000)"
fill="#000000" stroke="none">
<path d="M0 3500 l0 -3500 3500 0 3500 0 0 3500 0 3500 -3500 0 -3500 0 0
-3500z m3288 2955 c12 -3 22 -10 22 -14 0 -4 6 -8 13 -8 6 0 406 -205 888
-456 482 -251 905 -469 940 -485 74 -34 117 -73 97 -89 -7 -6 -169 -89 -359
-186 l-346 -177 -39 29 c-55 40 -1892 977 -1958 998 l-54 18 319 170 c338 180
415 217 439 210 8 -2 25 -6 38 -10z m-733 -402 c27 -9 155 -71 284 -138 280
-144 714 -366 1235 -631 209 -107 388 -202 398 -212 18 -17 18 -65 18 -1082 0
-585 -2 -1065 -3 -1067 -2 -2 -44 19 -94 46 -111 60 -498 262 -773 403 -113
58 -369 190 -570 293 -201 103 -434 223 -518 267 -147 77 -184 89 -149 50 11
-12 13 -22 7 -32 -5 -8 -10 -54 -10 -102 l0 -88 130 -65 c71 -36 136 -65 145
-65 11 0 15 20 17 100 l3 99 598 -306 597 -307 0 -138 c0 -76 -3 -138 -6 -138
-3 0 -181 92 -397 204 -216 112 -522 270 -682 351 -385 197 -419 216 -439 259
-14 31 -16 138 -16 1133 0 1071 1 1100 19 1117 19 17 126 65 147 66 6 0 32 -7
59 -17z m3233 -1178 c144 -77 262 -142 262 -145 0 -8 -563 -291 -578 -290 -20
0 -563 293 -556 299 15 16 581 280 595 278 9 -1 134 -65 277 -142z m-780 -214
c70 -38 199 -107 287 -153 l160 -84 3 -43 c3 -39 1 -43 -15 -37 -10 4 -154 77
-320 163 -262 136 -303 160 -303 179 0 23 23 43 48 44 7 0 70 -31 140 -69z
m39 -135 c98 -52 213 -111 256 -132 l77 -38 0 -703 0 -703 -280 140 -280 140
0 705 0 705 24 -10 c14 -5 105 -52 203 -104z m394 -196 c18 -10 19 -29 19
-700 l0 -690 -30 0 -30 0 0 700 c0 489 3 700 11 700 6 0 19 -5 30 -10z m-2910
-427 l109 -58 0 -93 0 -94 -112 60 -113 59 -3 92 c-2 50 0 91 3 91 4 0 57 -26
116 -57z m1050 -855 c679 -356 764 -404 736 -408 -18 -3 -70 2 -117 12 -73 15
-132 41 -420 188 -184 94 -480 243 -657 333 l-323 162 0 57 c0 32 3 58 7 58 3
0 352 -181 774 -402z m714 -61 c6 -6 -62 27 -150 73 -88 45 -164 87 -170 92
-5 6 62 -27 150 -72 88 -46 165 -87 170 -93z m10 -55 c-5 -5 -376 186 -390
201 -5 5 81 -37 192 -94 111 -57 200 -105 198 -107z m-1252 40 c28 -23 1033
-535 1085 -553 105 -37 472 -183 472 -188 0 -4 -106 -61 -235 -129 l-234 -123
-808 422 c-444 232 -812 425 -816 429 -5 5 110 66 255 137 l263 129 3 -57 c2
-32 8 -62 15 -67z m1051 17 c109 -56 195 -103 193 -105 -4 -4 -270 130 -357
180 -92 53 -27 23 164 -75z m196 -160 c0 -7 -117 51 -317 158 -157 83 -83 54
117 -48 110 -55 200 -105 200 -110z m-82 -6 c46 -25 82 -47 79 -49 -2 -2 -41
16 -85 41 -45 24 -125 67 -179 94 -54 27 -107 57 -118 65 -20 16 139 -63 303
-151z m192 110 l70 -38 0 -142 0 -143 -75 37 -75 37 0 143 c0 79 2 143 5 143
3 0 37 -17 75 -37z m-485 -13 c3 -6 -1 -7 -9 -4 -18 7 -21 14 -7 14 6 0 13 -4
16 -10z m243 -127 c79 -42 141 -77 139 -80 -5 -5 -367 186 -367 193 0 5 35
-12 228 -113z m-705 -493 l657 -345 0 -79 c0 -59 -3 -77 -12 -73 -7 3 -373
194 -813 425 l-800 419 -3 82 -3 82 158 -83 c88 -46 454 -238 816 -428z
m-1606 362 l72 -38 -74 -37 -75 -37 -72 36 -71 36 34 20 c19 12 52 29 74 39
22 10 40 19 40 19 0 0 33 -17 72 -38z m2553 -53 c25 -14 -8 -11 -60 6 l-45 15
45 -6 c25 -3 52 -10 60 -15z m-2812 -37 c15 -10 53 -31 84 -47 31 -16 56 -30
55 -31 -10 -9 -361 -194 -369 -194 -13 0 -168 83 -168 90 0 6 351 199 363 200
5 0 21 -8 35 -18z m130 -14 c34 -18 62 -38 62 -46 0 -12 -2 -12 -16 -1 -10 8
-42 28 -73 46 -73 42 -54 42 27 1z m357 -9 c30 -17 55 -34 55 -38 0 -4 -28
-23 -62 -42 l-63 -34 -60 32 c-33 17 -60 37 -60 42 0 10 107 68 128 70 4 1 32
-13 62 -30z m-75 -139 c46 -35 16 -28 -58 12 -39 22 -69 44 -66 49 6 10 79
-26 124 -61z m337 -16 c-7 -6 -35 -24 -63 -39 l-52 -27 -71 35 -71 34 77 35
77 35 57 -31 c44 -23 55 -34 46 -42z m-462 28 l60 -29 -75 -38 c-41 -21 -77
-41 -80 -46 -6 -9 -122 55 -120 67 2 9 126 72 145 73 6 1 37 -12 70 -27z m280
-88 c55 -30 81 -54 59 -54 -14 0 -134 73 -134 81 0 13 4 12 75 -27z m335 1
c27 -13 51 -29 55 -34 3 -6 -14 -20 -37 -32 -24 -12 -51 -28 -60 -37 -16 -13
-24 -12 -80 18 -35 18 -67 36 -72 41 -9 8 107 69 132 69 7 0 35 -11 62 -25z
m-807 -1 c43 -23 89 -55 84 -60 -4 -5 -127 65 -127 72 0 7 11 4 43 -12z m388
-11 c27 -16 49 -31 49 -35 0 -3 -24 -18 -52 -33 -29 -14 -60 -31 -68 -37 -12
-8 -31 -3 -79 21 -35 18 -61 35 -58 37 7 8 141 72 151 73 4 1 30 -11 57 -26z
m-861 -13 c33 -17 60 -32 60 -35 0 -3 -31 -21 -70 -40 l-70 -35 -72 36 -72 36
64 34 c36 18 73 33 83 34 10 0 44 -14 77 -30z m435 3 c30 -15 55 -30 55 -33 0
-3 -33 -24 -74 -46 l-74 -41 -56 31 c-31 17 -56 33 -56 36 0 5 129 76 142 79
4 0 32 -11 63 -26z m-705 -57 c0 -30 5 -36 58 -64 31 -16 379 -197 772 -402
393 -205 756 -395 805 -423 50 -28 142 -77 205 -110 63 -33 146 -79 183 -103
37 -24 70 -44 73 -44 8 0 189 106 265 156 36 23 126 75 200 115 73 39 141 77
149 84 8 7 52 32 98 55 74 38 82 45 82 71 0 16 3 29 7 29 7 0 400 -206 470
-246 18 -11 33 -22 33 -25 0 -3 -60 -32 -132 -64 -73 -32 -283 -129 -466 -216
l-334 -158 -185 95 -184 96 3 -47 3 -46 185 -101 c203 -110 195 -106 189 -113
-3 -2 -95 44 -204 104 -217 116 -396 211 -950 503 -198 105 -454 241 -570 303
-115 61 -273 145 -350 185 -248 130 -570 302 -582 312 -9 7 12 22 75 53 48 23
90 40 95 38 4 -2 7 -19 7 -37z m420 8 c0 -8 -7 -11 -17 -7 -27 9 -43 24 -38
34 8 12 55 -12 55 -27z m1068 -83 c3 -8 -26 3 -69 25 -40 22 -75 45 -77 53 -3
8 26 -3 69 -25 40 -22 75 -45 77 -53z m-598 63 c0 -14 -3 -14 -15 -4 -8 7 -15
14 -15 16 0 2 7 4 15 4 8 0 15 -7 15 -16z m866 -16 l62 -32 -62 -36 -61 -37
-67 34 c-38 18 -68 37 -68 41 0 7 112 59 130 61 2 1 32 -13 66 -31z m-1558
-67 c2 -7 -28 4 -69 25 -40 22 -75 45 -77 53 -6 18 140 -60 146 -78z m860 5
c2 -10 -21 -3 -72 22 -42 20 -76 42 -76 49 0 17 144 -52 148 -71z m328 17 c-4
-4 -37 -21 -74 -38 l-67 -32 -63 31 -64 31 79 36 78 36 59 -29 c32 -16 55 -32
52 -35z m3314 -17 l0 -84 -40 -7 c-61 -10 -104 -44 -108 -84 -5 -52 23 -74
121 -95 26 -6 27 -9 29 -79 l2 -72 3 71 4 72 44 11 c129 33 129 139 -1 173
l-44 12 0 83 c0 46 2 83 5 83 7 0 468 -250 477 -259 8 -7 -481 -263 -512 -269
-8 -1 -129 56 -269 127 l-254 129 264 135 c145 74 267 135 272 136 4 0 7 -37
7 -83z m-4213 33 c30 -17 52 -33 50 -35 -3 -3 -33 -20 -68 -39 l-63 -33 -58
29 c-32 16 -58 33 -58 37 0 8 117 70 134 71 5 1 33 -13 63 -30z m73 0 c27 -17
50 -34 50 -39 0 -10 -109 52 -110 63 0 12 7 9 60 -24z m349 3 l61 -28 -79 -38
-78 -39 -62 34 -62 34 68 32 c37 17 73 32 79 32 6 1 39 -12 73 -27z m724 -72
c63 -32 91 -59 46 -45 -33 11 -129 68 -129 78 0 5 3 7 8 5 4 -2 37 -19 75 -38z
m328 -1 c32 -18 59 -35 59 -39 0 -5 -29 -24 -65 -44 l-66 -36 -69 35 c-39 19
-70 39 -70 44 0 11 111 70 134 71 10 0 45 -14 77 -31z m-721 -49 c0 -14 -3
-13 -65 17 -30 15 -55 33 -55 40 0 9 19 3 60 -17 33 -17 60 -35 60 -40z m308
37 l62 -32 -77 -39 -77 -38 -68 33 -68 33 78 37 c42 21 79 37 82 38 3 0 33
-14 68 -32z m-789 -13 c42 -25 89 -64 76 -64 -3 0 -23 11 -45 25 -22 14 -43
25 -47 25 -5 0 -19 9 -33 20 -37 29 -5 25 49 -6z m360 -3 l54 -28 -67 -36
c-37 -21 -73 -37 -82 -37 -16 0 -114 47 -114 55 0 6 132 74 145 74 6 0 34 -12
64 -28z m-764 -12 c30 -17 55 -35 55 -41 0 -5 -27 5 -60 24 -33 18 -60 36 -60
40 0 12 7 10 65 -23z m336 5 c33 -15 59 -29 59 -33 0 -3 -31 -22 -69 -41 l-69
-36 -61 30 c-33 17 -61 33 -61 37 0 5 121 64 139 68 2 1 30 -11 62 -25z m1208
-123 c1 -9 -13 -5 -41 13 -24 15 -58 34 -75 43 -18 9 -33 20 -33 25 0 14 149
-66 149 -81z m309 21 c22 -14 21 -15 -43 -53 l-66 -38 -75 37 c-40 20 -74 40
-74 44 0 4 30 23 68 42 l67 34 50 -26 c28 -13 60 -32 73 -40z m2577 40 c19
-12 31 -28 33 -44 5 -39 -36 -62 -107 -63 -67 0 -115 18 -129 50 -9 19 -7 26
11 43 49 44 130 50 192 14z m-3312 -75 c-6 -10 -146 65 -151 82 -3 7 31 -6 76
-30 44 -24 78 -47 75 -52z m267 58 c28 -14 50 -29 50 -34 0 -6 -29 -25 -64
-44 l-64 -33 -68 34 -69 35 70 33 c39 18 76 33 83 34 7 0 35 -11 62 -25z
m-770 -15 c56 -28 77 -50 48 -50 -20 1 -111 54 -116 68 -5 17 1 16 68 -18z
m352 -1 l62 -31 -64 -34 c-36 -18 -74 -33 -85 -33 -11 0 -45 13 -75 29 l-55
28 75 35 c41 20 76 36 78 36 1 1 30 -13 64 -30z m-759 -14 c31 -16 57 -36 57
-43 0 -17 -122 47 -128 67 -5 16 -2 15 71 -24z m332 -2 c30 -15 55 -30 55 -33
0 -3 -32 -19 -71 -37 l-71 -32 -61 31 -61 31 64 33 c36 18 71 33 77 34 7 0 37
-12 68 -27z m3643 -230 l122 -64 0 -65 c0 -35 -2 -64 -5 -64 -3 0 -120 60
-260 132 l-255 133 0 68 0 68 138 -72 c75 -39 192 -101 260 -136z m-2607 162
c38 -20 68 -39 65 -43 -2 -4 -33 -22 -68 -41 l-64 -34 -64 34 c-35 19 -65 39
-67 46 -2 6 11 16 29 22 18 6 44 20 58 31 14 11 28 20 33 20 4 0 39 -16 78
-35z m99 0 c39 -19 70 -40 70 -45 0 -6 -2 -10 -5 -10 -12 0 -145 75 -145 82 0
12 5 11 80 -27z m331 -1 c43 -21 68 -39 62 -45 -5 -5 -34 -24 -64 -42 l-56
-34 -78 39 c-42 22 -75 41 -74 43 5 4 133 75 137 75 1 0 34 -16 73 -36z m-758
-5 c71 -36 72 -37 65 -45 -7 -6 -124 51 -133 66 -10 16 1 12 68 -21z m-432
-10 c34 -17 58 -33 55 -36 -8 -8 -126 48 -126 59 0 12 6 10 71 -23z m358 -5
c34 -15 61 -29 61 -33 0 -3 -33 -21 -74 -39 l-73 -33 -67 33 -67 33 68 33 c37
17 73 32 80 32 6 0 39 -12 72 -26z m-766 -14 c26 -16 47 -35 47 -41 0 -13
-102 43 -108 59 -6 19 11 14 61 -18z m644 -152 c188 -94 340 -174 338 -179 -7
-11 -131 -79 -145 -79 -9 0 -693 353 -709 366 -9 8 136 72 154 68 11 -3 174
-82 362 -176z m473 32 c0 -6 -31 6 -70 25 -38 19 -70 40 -70 45 0 6 32 -6 70
-25 39 -19 70 -40 70 -45z m257 44 c73 -41 73 -44 -11 -88 l-55 -30 -67 35
c-38 19 -70 39 -71 44 -3 10 109 73 131 74 5 1 38 -15 73 -35z m106 -4 c37
-19 67 -38 67 -42 0 -11 -136 58 -146 73 -8 13 -10 14 79 -31z m310 14 c86
-43 86 -43 8 -86 l-70 -39 -48 25 c-96 49 -96 49 -18 89 39 20 71 36 73 37 1
0 26 -12 55 -26z m-1172 -19 c27 -14 47 -30 44 -35 -6 -10 -99 32 -110 50 -10
17 13 11 66 -15z m350 -1 c28 -14 49 -27 47 -29 -2 -3 -36 -22 -75 -43 l-71
-39 -62 34 -62 35 54 22 c29 12 62 27 73 34 29 17 40 15 96 -14z m-286 -266
c93 -49 141 -79 143 -92 4 -20 -3 -17 -445 220 -134 71 -243 135 -243 142 0
12 63 -20 545 -270z m1259 191 c-8 -14 -24 -10 -24 6 0 9 6 12 15 9 8 -4 12
-10 9 -15z m-790 -25 l68 -36 -59 -39 c-32 -21 -62 -39 -68 -39 -13 -1 -155
73 -155 80 1 5 128 67 140 69 3 1 36 -15 74 -35z m96 1 c39 -19 70 -40 70 -46
0 -5 -30 7 -67 27 -114 62 -116 76 -3 19z m323 4 c96 -48 96 -47 25 -90 -35
-21 -67 -38 -73 -38 -5 0 -43 20 -84 44 l-74 43 69 36 c38 19 70 35 72 36 1 0
31 -14 65 -31z m100 -4 c49 -25 72 -45 51 -45 -13 0 -124 66 -124 73 0 5 3 7
8 5 4 -2 33 -17 65 -33z m-793 -47 c0 -4 -27 5 -60 22 -33 17 -60 35 -60 41 0
5 27 -4 60 -22 33 -17 60 -36 60 -41z m1157 31 l55 -31 -72 -39 c-39 -22 -77
-39 -84 -39 -24 0 -106 51 -106 66 0 15 112 74 139 74 7 0 38 -14 68 -31z
m1243 -76 c61 -32 110 -60 110 -63 0 -3 -63 -37 -140 -77 l-140 -72 -115 62
c-63 34 -115 64 -115 67 0 7 262 139 278 139 7 1 62 -25 122 -56z m-2265 -10
c71 -35 92 -53 62 -53 -11 0 -46 20 -134 77 -37 24 -1 12 72 -24z m349 -10
l75 -37 -62 -38 c-34 -20 -68 -37 -75 -38 -15 0 -152 72 -152 81 0 6 118 67
132 68 4 1 41 -16 82 -36z m165 -39 c2 -2 2 -7 -2 -10 -6 -7 -133 62 -143 77
-5 9 132 -55 145 -67z m272 30 c39 -19 68 -38 65 -42 -4 -3 -37 -23 -74 -44
l-67 -37 -77 41 c-43 23 -77 43 -75 44 13 11 135 74 145 74 7 0 44 -16 83 -36z
m73 10 c45 -25 62 -41 54 -50 -8 -7 -108 51 -108 64 0 16 0 16 54 -14z m-674
-142 c0 -4 -30 -26 -67 -49 l-67 -41 -79 39 c-43 22 -77 42 -76 44 2 2 37 21
78 43 l74 41 69 -35 c37 -19 68 -38 68 -42z m99 2 c1 -1 1 -8 -1 -14 -2 -7
-20 1 -43 18 -22 16 -54 33 -70 39 -16 5 -31 15 -33 22 -3 9 125 -47 147 -65z
m272 20 c39 -19 69 -37 68 -38 -2 -2 -35 -22 -72 -44 l-68 -42 -70 35 c-38 20
-69 41 -69 48 0 11 111 75 133 76 4 1 39 -15 78 -35z m86 1 c34 -20 63 -40 63
-46 0 -11 -140 62 -140 74 0 12 11 8 77 -28z m1401 -73 c51 -26 52 -27 52 -70
l0 -44 -62 35 c-35 19 -91 49 -125 68 -62 33 -63 34 -63 76 l0 42 73 -40 c39
-22 96 -52 125 -67z m-2061 -27 c34 -20 63 -43 63 -50 0 -21 -5 -19 -77 20
-34 20 -63 43 -63 50 0 21 5 19 77 -20z m351 -87 c-80 -44 -86 -44 -167 3 -61
35 -60 36 26 84 l58 33 77 -41 78 -41 -72 -38z m158 31 c10 -16 -11 -9 -79 27
-37 19 -67 40 -67 45 0 10 136 -57 146 -72z m-246 -106 c0 -8 -20 0 -50 17
-28 17 -55 30 -60 30 -6 0 -10 7 -10 15 0 11 15 6 60 -18 33 -17 60 -38 60
-44z"/>
<path d="M2695 6100 c-3 -5 -1 -10 4 -10 6 0 11 5 11 10 0 6 -2 10 -4 10 -3 0
-8 -4 -11 -10z"/>
<path d="M2440 5871 c-7 -13 -10 -315 -10 -910 l0 -890 28 -19 c25 -18 185
-100 1382 -715 l455 -233 3 28 c2 16 9 28 18 28 12 0 14 121 12 892 l-3 892
-919 473 c-506 260 -927 473 -937 473 -10 0 -23 -9 -29 -19z m304 -252 l116
-61 0 -39 c0 -22 -5 -39 -11 -39 -7 0 -61 26 -120 57 l-109 57 0 43 c0 24 2
43 4 43 2 0 56 -27 120 -61z m414 -254 c2 -28 -1 -46 -7 -44 -5 2 -61 31 -125
64 l-116 60 0 46 0 47 123 -63 122 -64 3 -46z m-33 -155 c198 -103 521 -269
718 -369 304 -155 384 -201 351 -201 -3 0 -337 171 -742 379 -405 208 -776
398 -824 422 -49 24 -88 49 -88 56 0 15 78 -23 585 -287z m195 115 l90 -45 0
-40 c0 -22 -2 -40 -5 -40 -3 0 -48 21 -100 47 -95 47 -95 48 -95 85 0 21 5 38
10 38 6 0 51 -20 100 -45z m450 -219 l215 -113 3 -63 c2 -36 -1 -61 -7 -59 -5
2 -106 54 -225 114 l-216 110 0 63 c0 34 3 62 8 62 4 -1 104 -52 222 -114z
m-816 -46 l256 -135 0 -468 c0 -258 -4 -467 -8 -465 -5 2 -124 65 -265 142
l-257 138 0 465 c0 275 4 463 9 461 5 -1 124 -64 265 -138z m1226 -225 l0 -65
-70 35 -70 35 0 65 0 65 70 -35 70 -35 0 -65z m-680 -193 c144 -77 165 -91
168 -114 3 -26 1 -26 -120 38 -68 36 -147 77 -175 91 -41 21 -53 32 -53 50 0
13 3 23 8 23 4 -1 81 -40 172 -88z m290 -300 c163 -87 206 -114 208 -132 5
-30 2 -29 -238 99 -113 59 -257 135 -320 168 -101 52 -115 63 -118 87 l-4 28
134 -70 c73 -39 225 -120 338 -180z m-165 -56 c254 -135 290 -157 293 -179 3
-24 -1 -23 -125 41 -482 251 -473 245 -473 269 0 13 3 23 8 23 4 -1 138 -70
297 -154z m-99 -87 c173 -90 194 -103 194 -126 0 -24 -8 -21 -200 79 -170 88
-200 106 -200 126 0 12 3 22 6 22 3 0 93 -45 200 -101z m100 -191 c252 -131
294 -156 294 -175 0 -13 -2 -23 -4 -23 -8 0 -606 311 -606 315 0 9 13 35 17
35 2 0 137 -69 299 -152z m474 -4 c0 -24 -1 -24 -30 -9 -21 11 -30 23 -30 41
0 24 1 24 30 9 21 -11 30 -23 30 -41z m-512 -127 c11 -8 18 -47 8 -47 -9 0
-276 142 -281 150 -3 4 -2 15 1 24 5 13 28 5 133 -51 69 -36 132 -70 139 -76z
m352 -198 c0 -15 -5 -19 -16 -15 -9 3 -18 6 -20 6 -2 0 -4 11 -4 25 0 23 2 24
20 15 11 -6 20 -20 20 -31z m70 -40 c0 -15 -5 -19 -16 -15 -9 3 -18 6 -20 6
-2 0 -4 11 -4 25 0 23 2 24 20 15 11 -6 20 -20 20 -31z m91 -29 c17 -10 28
-50 13 -50 -18 0 -44 24 -44 40 0 23 4 24 31 10z"/>
<path d="M2760 5008 l0 -73 40 -22 c21 -13 44 -23 49 -23 7 0 11 27 11 69 l0
69 -46 26 c-26 14 -48 26 -50 26 -2 0 -4 -33 -4 -72z"/>
<path d="M2960 4951 c0 -39 0 -39 86 -85 47 -25 88 -46 90 -46 2 0 4 17 4 38
0 38 -1 39 -90 86 l-90 47 0 -40z"/>
<path d="M2760 4841 l0 -69 44 -26 c25 -14 47 -26 50 -26 3 0 6 31 6 70 l0 70
-50 25 -50 25 0 -69z"/>
<path d="M2760 4673 l0 -68 40 -22 c21 -13 43 -23 48 -23 6 0 10 29 10 65 l1
65 -43 25 c-24 14 -46 25 -49 25 -4 0 -7 -30 -7 -67z"/>
<path d="M2760 4513 l0 -69 45 -22 c25 -12 47 -22 48 -22 2 0 3 29 3 65 l-1
65 -47 25 -48 26 0 -68z"/>
<path d="M2760 4352 l0 -67 43 -23 c23 -12 45 -22 50 -22 4 0 7 29 7 64 l0 64
-46 26 c-26 14 -48 26 -50 26 -2 0 -4 -30 -4 -68z"/>
<path d="M5094 3585 c-9 -22 22 -53 37 -38 15 15 7 47 -14 51 -9 2 -20 -4 -23
-13z"/>
<path d="M2430 3915 c0 -8 9 -19 20 -25 17 -9 20 -8 20 9 0 10 -7 22 -16 25
-22 8 -24 8 -24 -9z"/>
<path d="M2485 3891 c-3 -5 3 -17 12 -27 11 -11 18 -13 21 -5 9 28 -18 55 -33
32z"/>
<path d="M2539 3857 c9 -25 41 -36 41 -14 0 7 -11 19 -25 25 -22 10 -23 10
-16 -11z"/>
<path d="M2430 3861 c0 -12 29 -35 36 -28 11 10 -5 37 -21 37 -8 0 -15 -4 -15
-9z"/>
<path d="M2590 3831 c0 -11 9 -25 20 -31 17 -9 20 -8 20 9 0 11 -9 25 -20 31
-17 9 -20 8 -20 -9z"/>
<path d="M2492 3824 c1 -9 9 -19 16 -22 9 -3 13 2 10 14 -1 9 -9 19 -16 22 -9
3 -13 -2 -10 -14z"/>
<path d="M2540 3806 c0 -7 7 -19 15 -26 12 -10 15 -9 15 8 0 11 -7 22 -15 26
-9 3 -15 0 -15 -8z"/>
<path d="M2430 3795 c0 -8 9 -19 20 -25 15 -8 20 -8 20 3 0 14 -19 37 -32 37
-4 0 -8 -7 -8 -15z"/>
<path d="M2590 3777 c0 -18 28 -42 37 -33 9 8 -9 38 -25 44 -7 2 -12 -3 -12
-11z"/>
<path d="M2480 3771 c0 -12 29 -41 41 -41 13 0 11 24 -3 38 -14 14 -38 16 -38
3z"/>
<path d="M2540 3742 c0 -12 14 -25 40 -37 44 -20 54 -17 44 9 -4 11 -14 16
-25 13 -11 -3 -19 -1 -19 4 0 4 -9 13 -20 19 -17 9 -20 8 -20 -8z"/>
<path d="M1798 2383 c7 -3 16 -2 19 1 4 3 -2 6 -13 5 -11 0 -14 -3 -6 -6z"/>
<path d="M1120 2275 c-13 -16 -8 -18 28 -9 12 4 22 10 22 15 0 15 -37 10 -50
-6z"/>
<path d="M1335 2170 c-3 -5 3 -10 15 -10 12 0 18 5 15 10 -3 6 -10 10 -15 10
-5 0 -12 -4 -15 -10z"/>
</g>
</svg>
