<svg width="33" height="29" viewBox="0 0 33 29" fill="none" xmlns="http://www.w3.org/2000/svg">
<path d="M16.4167 0C16.2193 2.53169e-05 16.0239 0.0391978 15.8418 0.11525C15.6596 0.191302 15.4944 0.302723 15.3556 0.443063L0.303148 13.5776C0.209139 13.6469 0.132732 13.7374 0.080078 13.8417C0.0274242 13.946 -4.48875e-06 14.0612 5.5099e-10 14.178C5.50991e-10 14.3759 0.0786185 14.5657 0.21856 14.7057C0.358502 14.8456 0.548304 14.9242 0.746212 14.9242H4.47727V26.8636C4.47727 27.6874 5.14588 28.356 5.96969 28.356H11.9394C12.7632 28.356 13.4318 27.6874 13.4318 26.8636V17.9091H19.4015V26.8636C19.4015 27.6874 20.0701 28.356 20.8939 28.356H26.8636C27.6874 28.356 28.356 27.6874 28.356 26.8636V14.9242H32.0871C32.285 14.9242 32.4748 14.8456 32.6148 14.7057C32.7547 14.5657 32.8333 14.3759 32.8333 14.178C32.8333 14.0612 32.8059 13.946 32.7532 13.8417C32.7006 13.7374 32.6242 13.6469 32.5302 13.5776L17.4864 0.451808C17.4835 0.448881 17.4806 0.445966 17.4777 0.443063C17.3389 0.302723 17.1737 0.191302 16.9915 0.11525C16.8094 0.0391978 16.614 2.53169e-05 16.4167 0Z" fill="#EFEFEF"/>
</svg>
